<?xml version="1.0" standalone="no"?><!DOCTYPE svg PUBLIC "-//W3C//DTD SVG 1.1//EN" "http://www.w3.org/Graphics/SVG/1.1/DTD/svg11.dtd"><svg t="1633706856096" class="icon" viewBox="0 0 1026 1024" version="1.1" xmlns="http://www.w3.org/2000/svg" p-id="3485" xmlns:xlink="http://www.w3.org/1999/xlink" width="200.390625" height="200"><defs><style type="text/css"></style></defs><path d="M499.72738 515.748876s-228.037726 127.871622-377.221286 481.649777c-4.262387 10.655969 4.262387 25.574324 17.04955 25.574325h42.623874c8.524775 0 14.918356-6.393581 17.04955-12.787162 36.230293-134.265203 125.740429-360.171736 326.072636-483.780971l-25.574324-10.655969z" fill="#ffffff" p-id="3486"></path><path d="M998.426707 566.897525c27.705518 29.836712 31.967906 66.067005 12.787162 102.297298-40.49268 78.854167-127.871622 110.822073-210.988177 76.722973-93.772523-40.49268-136.396397-95.903717-268.530406-228.037726l-6.393582-8.524775 14.918356-12.787162c215.250564-200.332208 215.250564-215.250564 311.154281-230.16892 68.198199-10.655969 119.346847 23.443131 155.57714 78.854167 46.886261 70.329392 0 123.609235-74.591779 164.101915 23.443131 21.311937 44.755068 36.230293 66.067005 57.54223zM26.602378 458.206646c-27.705518-29.836712-31.967906-66.067005-12.787162-102.297297 40.49268-78.854167 127.871622-110.822073 210.988176-76.722974 93.772523 40.49268 136.396397 95.903717 268.530407 228.037726l6.393581 8.524775-14.918356 12.787163c-70.329392 63.935811-138.527591 132.13401-210.988177 191.807433-25.574324 21.311937-66.067005 31.967906-100.166104 36.230293-68.198199 10.655969-119.346847-23.443131-155.57714-78.854167-36.230293-55.411036-17.04955-108.690879 49.017455-149.183559 8.524775-4.262387 17.04955-8.524775 25.574325-14.918356-23.443131-19.180743-46.886261-36.230293-66.067005-55.411037z" fill="#ffffff" p-id="3487"></path><path d="M668.091683 12.787162c78.854167 40.49268 110.822073 127.871622 76.722973 210.988177-40.49268 93.772523-95.903717 136.396397-228.037726 268.530407l-8.524775 6.393581-12.787162-14.918356c-200.332208-215.250564-213.11937-213.11937-228.037727-309.023087C256.771298 106.559685 290.870397 55.411036 346.281433 19.180743c70.329392-46.886261 123.609235 0 164.101916 74.59178C555.138416 40.49268 591.368709-27.705518 668.091683 12.787162zM457.103506 997.398653c-29.836712 27.705518-66.067005 31.967906-102.297298 12.787163-78.854167-40.49268-110.822073-127.871622-76.722973-210.988177 14.918356-36.230293 38.361487-74.59178 66.067005-104.428492 49.017455-55.411036 104.428491-106.559685 164.101915-164.101915l8.524775-6.393581 12.787162 14.918356c200.332208 215.250564 215.250564 215.250564 230.16892 311.154281 10.655969 68.198199-23.443131 119.346847-78.854167 155.57714-55.411036 36.230293-108.690879 17.04955-149.183559-49.017455-4.262387-8.524775-8.524775-17.04955-14.918356-25.574325-23.443131 23.443131-38.361487 46.886261-59.673424 66.067005z" fill="#ffffff" p-id="3488"></path><path d="M785.307336 502.961714C853.505535 522.142457 896.129409 554.110363 896.129409 554.110363c-51.148649-44.755068-106.559685-68.198199-155.57714-78.854167 4.262387-6.393581 21.311937-27.705518 68.198198-34.099099 0 0-36.230293-14.918356-87.378942 29.836712-91.641329-14.918356-159.839528 10.655969-159.839528 10.655968-6.393581 2.131194-12.787162 0-17.049549-4.262387-8.524775-8.524775-19.180743-12.787162-31.967906-12.787163-10.655969-31.967906-17.04955-63.935811-19.180743-91.641329 55.411036-27.705518 78.854167-85.247748 78.854167-85.247748-31.967906 46.886261-68.198199 59.673424-80.985361 61.804617 0-34.099099 2.131194-66.067005 8.524775-93.772523 19.180743-8.524775 59.673424-27.705518 66.067005-63.935811 0 0-27.705518 36.230293-61.804618 46.886262C523.170511 170.495496 555.138416 127.871622 555.138416 127.871622c-44.755068 51.148649-68.198199 106.559685-78.854167 155.577141-6.393581-4.262387-27.705518-21.311937-34.099099-68.198199 0 0-14.918356 36.230293 29.836712 87.378942-14.918356 91.641329 10.655969 159.839528 10.655968 159.839528 2.131194 6.393581 0 12.787162-4.262387 17.049549-8.524775 8.524775-12.787162 19.180743-12.787162 31.967906-31.967906 10.655969-63.935811 17.04955-91.64133 19.180743-27.705518-55.411036-85.247748-78.854167-85.247748-78.854167 46.886261 31.967906 59.673424 68.198199 61.804618 80.985361-34.099099 0-66.067005-2.131194-93.772523-8.524775-8.524775-19.180743-27.705518-59.673424-63.935811-66.067005 0 0 36.230293 27.705518 46.886261 61.804618C169.392356 500.83052 128.899676 468.862615 128.899676 468.862615c51.148649 44.755068 106.559685 68.198199 155.57714 78.854167-4.262387 6.393581-21.311937 27.705518-68.198199 34.099099 0 0 36.230293 14.918356 87.378942-29.836712 91.641329 14.918356 159.839528-10.655969 159.839528-10.655968 6.393581-2.131194 12.787162 0 17.04955 4.262387 8.524775 8.524775 19.180743 12.787162 31.967905 12.787162 10.655969 31.967906 17.04955 63.935811 19.180744 91.64133-55.411036 27.705518-78.854167 85.247748-78.854167 85.247748 31.967906-46.886261 68.198199-59.673424 80.98536-61.804618 0 34.099099-2.131194 66.067005-8.524775 93.772523-19.180743 8.524775-59.673424 27.705518-66.067004 63.935811 0 0 27.705518-36.230293 61.804617-46.886261C501.858574 854.608675 469.890668 895.101356 469.890668 895.101356c44.755068-51.148649 68.198199-106.559685 78.854167-155.577141 6.393581 4.262387 27.705518 21.311937 34.099099 68.198199 0 0 14.918356-36.230293-29.836711-87.378942 14.918356-91.641329-10.655969-159.839528-10.655969-159.839528-2.131194-6.393581 0-12.787162 4.262387-17.04955 8.524775-8.524775 12.787162-19.180743 12.787163-31.967905 31.967906-10.655969 63.935811-17.04955 91.641329-19.180743 27.705518 55.411036 85.247748 78.854167 85.247748 78.854167-46.886261-31.967906-59.673424-68.198199-61.804617-80.985361 34.099099 0 66.067005 2.131194 93.772523 8.524775 8.524775 19.180743 27.705518 59.673424 63.935811 66.067004 0 0-36.230293-27.705518-46.886262-61.804617z" fill="#ffffff" p-id="3489"></path></svg>